<svg id="visual" viewBox="0 0 1920 1080" width="1920" height="1080" xmlns="http://www.w3.org/2000/svg" xmlns:xlink="http://www.w3.org/1999/xlink" version="1.1"><path d="M0 260L24.7 263.7C49.3 267.3 98.7 274.7 147.8 287.3C197 300 246 318 295.2 327C344.3 336 393.7 336 443 336C492.3 336 541.7 336 590.8 330.5C640 325 689 314 738.2 301.3C787.3 288.7 836.7 274.3 886 285.2C935.3 296 984.7 332 1034 344.7C1083.3 357.3 1132.7 346.7 1181.8 332.3C1231 318 1280 300 1329.2 294.5C1378.3 289 1427.7 296 1477 306.8C1526.3 317.7 1575.7 332.3 1624.8 321.7C1674 311 1723 275 1772.2 264.2C1821.3 253.3 1870.7 267.7 1895.3 274.8L1920 282L1920 0L1895.3 0C1870.7 0 1821.3 0 1772.2 0C1723 0 1674 0 1624.8 0C1575.7 0 1526.3 0 1477 0C1427.7 0 1378.3 0 1329.2 0C1280 0 1231 0 1181.8 0C1132.7 0 1083.3 0 1034 0C984.7 0 935.3 0 886 0C836.7 0 787.3 0 738.2 0C689 0 640 0 590.8 0C541.7 0 492.3 0 443 0C393.7 0 344.3 0 295.2 0C246 0 197 0 147.8 0C98.7 0 49.3 0 24.7 0L0 0Z" fill="#1ba6e2"></path><path d="M0 595L24.7 586C49.3 577 98.7 559 147.8 568C197 577 246 613 295.2 636.3C344.3 659.7 393.7 670.3 443 659.5C492.3 648.7 541.7 616.3 590.8 605.7C640 595 689 606 738.2 615C787.3 624 836.7 631 886 640C935.3 649 984.7 660 1034 661.8C1083.3 663.7 1132.7 656.3 1181.8 647.3C1231 638.3 1280 627.7 1329.2 627.7C1378.3 627.7 1427.7 638.3 1477 643.7C1526.3 649 1575.7 649 1624.8 634.7C1674 620.3 1723 591.7 1772.2 591.7C1821.3 591.7 1870.7 620.3 1895.3 634.7L1920 649L1920 280L1895.3 272.8C1870.7 265.7 1821.3 251.3 1772.2 262.2C1723 273 1674 309 1624.8 319.7C1575.7 330.3 1526.3 315.7 1477 304.8C1427.7 294 1378.3 287 1329.2 292.5C1280 298 1231 316 1181.8 330.3C1132.7 344.7 1083.3 355.3 1034 342.7C984.7 330 935.3 294 886 283.2C836.7 272.3 787.3 286.7 738.2 299.3C689 312 640 323 590.8 328.5C541.7 334 492.3 334 443 334C393.7 334 344.3 334 295.2 325C246 316 197 298 147.8 285.3C98.7 272.7 49.3 265.3 24.7 261.7L0 258Z" fill="#1292cf"></path><path d="M0 789L24.7 783.7C49.3 778.3 98.7 767.7 147.8 771.3C197 775 246 793 295.2 807.3C344.3 821.7 393.7 832.3 443 832.3C492.3 832.3 541.7 821.7 590.8 816.3C640 811 689 811 738.2 812.8C787.3 814.7 836.7 818.3 886 823.7C935.3 829 984.7 836 1034 832.3C1083.3 828.7 1132.7 814.3 1181.8 801.8C1231 789.3 1280 778.7 1329.2 778.7C1378.3 778.7 1427.7 789.3 1477 796.5C1526.3 803.7 1575.7 807.3 1624.8 802C1674 796.7 1723 782.3 1772.2 780.5C1821.3 778.7 1870.7 789.3 1895.3 794.7L1920 800L1920 647L1895.3 632.7C1870.7 618.3 1821.3 589.7 1772.2 589.7C1723 589.7 1674 618.3 1624.8 632.7C1575.7 647 1526.3 647 1477 641.7C1427.7 636.3 1378.3 625.7 1329.2 625.7C1280 625.7 1231 636.3 1181.8 645.3C1132.7 654.3 1083.3 661.7 1034 659.8C984.7 658 935.3 647 886 638C836.7 629 787.3 622 738.2 613C689 604 640 593 590.8 603.7C541.7 614.3 492.3 646.7 443 657.5C393.7 668.3 344.3 657.7 295.2 634.3C246 611 197 575 147.8 566C98.7 557 49.3 575 24.7 584L0 593Z" fill="#0a7fbc"></path><path d="M0 941L24.7 935.5C49.3 930 98.7 919 147.8 917.2C197 915.3 246 922.7 295.2 929.8C344.3 937 393.7 944 443 945.8C492.3 947.7 541.7 944.3 590.8 940.8C640 937.3 689 933.7 738.2 933.7C787.3 933.7 836.7 937.3 886 940.8C935.3 944.3 984.7 947.7 1034 947.7C1083.3 947.7 1132.7 944.3 1181.8 937.2C1231 930 1280 919 1329.2 917.2C1378.3 915.3 1427.7 922.7 1477 926.3C1526.3 930 1575.7 930 1624.8 928.2C1674 926.3 1723 922.7 1772.2 920.8C1821.3 919 1870.7 919 1895.3 919L1920 919L1920 798L1895.3 792.7C1870.7 787.3 1821.3 776.7 1772.2 778.5C1723 780.3 1674 794.7 1624.8 800C1575.7 805.3 1526.3 801.7 1477 794.5C1427.7 787.3 1378.3 776.7 1329.2 776.7C1280 776.7 1231 787.3 1181.8 799.8C1132.7 812.3 1083.3 826.7 1034 830.3C984.7 834 935.3 827 886 821.7C836.7 816.3 787.3 812.7 738.2 810.8C689 809 640 809 590.8 814.3C541.7 819.7 492.3 830.3 443 830.3C393.7 830.3 344.3 819.7 295.2 805.3C246 791 197 773 147.8 769.3C98.7 765.7 49.3 776.3 24.7 781.7L0 787Z" fill="#046ca9"></path><path d="M0 1081L24.7 1081C49.3 1081 98.7 1081 147.8 1081C197 1081 246 1081 295.2 1081C344.3 1081 393.7 1081 443 1081C492.3 1081 541.7 1081 590.8 1081C640 1081 689 1081 738.2 1081C787.3 1081 836.7 1081 886 1081C935.3 1081 984.7 1081 1034 1081C1083.3 1081 1132.7 1081 1181.8 1081C1231 1081 1280 1081 1329.2 1081C1378.3 1081 1427.7 1081 1477 1081C1526.3 1081 1575.7 1081 1624.8 1081C1674 1081 1723 1081 1772.2 1081C1821.3 1081 1870.7 1081 1895.3 1081L1920 1081L1920 917L1895.3 917C1870.7 917 1821.3 917 1772.2 918.8C1723 920.7 1674 924.3 1624.8 926.2C1575.7 928 1526.3 928 1477 924.3C1427.7 920.7 1378.3 913.3 1329.2 915.2C1280 917 1231 928 1181.8 935.2C1132.7 942.3 1083.3 945.7 1034 945.7C984.7 945.7 935.3 942.3 886 938.8C836.7 935.3 787.3 931.7 738.2 931.7C689 931.7 640 935.3 590.8 938.8C541.7 942.3 492.3 945.7 443 943.8C393.7 942 344.3 935 295.2 927.8C246 920.7 197 913.3 147.8 915.2C98.7 917 49.3 928 24.7 933.5L0 939Z" fill="#005a95"></path></svg>